#!OML:ASF E:/inclinewalkrobotboard/Project1/Captureday1/Session1/subject1.ASF
:FULLY-SPECIFIED
:DEGREES
263
root 0 0 0 -0.5145517562057013 -3.0149179458865065 -0.20015088356874444
lowerback 11.21415365797542 0.6342875575739282 0.40046820162874086
upperback -1.9335212763746679 0.9274569611225509 0.500595079174478
thorax -8.364608813556126 0.4318908470100524 0.11277928609996313
lowerneck -11.431523772718151 -0.6380425000798928 1.338220257768117
upperneck 18.860893128534514 -0.2630851582471665 -3.88618340010919
head 7.826886068607565 -0.32006761280909396 -1.565032585002868
rclavicle -5.492960414908299E-16 -6.188081433929955E-16
rhumerus -0.6003109716815214 0.859647182592516 -60.257291085444365
rradius 53.27026609882627
rwrist 17.41850040715923
rhand -27.216752898941852 -23.313432303120557
rfingers 7.125019999999924
rthumb -0.8117749304025046 -53.45169663015719
lclavicle -4.899963027630807E-16 -6.926572400325206E-16
lhumerus -1.3147936729850862 -6.920453351675987 60.5022192419108
lradius 52.62235531466503
lwrist -11.121803277039145
lhand -37.26316875802687 -31.184502899321714
lfingers 7.12501999999992
lthumb -10.36608947018281 -1.63046701066542
rfemur -21.40678134795453 -0.3552176014985511 19.52576902068194
rtibia 50.64405314539132
rfoot -22.810351090486023 -13.873482350112354
rtoes -12.270411902686906
lfemur -23.104240359809985 1.5416257324135614 -18.14469863403828
ltibia 50.09649808641038
lfoot -25.923575236704373 -3.6521516846631714
ltoes -16.698467419401165
264
root 0 0 0 -0.5145668828994455 -3.0149135131934663 -0.20016678123329656
lowerback 11.214147775567923 0.6342853444624169 0.4004717355427041
upperback -1.933501625815738 0.9274552975289521 0.5006039541742218
thorax -8.364583911052963 0.43189019219139885 0.11278714962332465
lowerneck -11.431565603803882 -0.6380601012534407 1.3381946037301176
upperneck 18.860896140592317 -0.26311181901156244 -3.886149175937314
head 7.82689417640669 -0.3200792324666783 -1.565019850874123
rclavicle -5.492982915717153E-16 -6.1880570395660955E-16
rhumerus -0.6004891030104993 0.8595295860534957 -60.257397547391456
rradius 53.270102550326285
rwrist 17.418418704505513
rhand -27.216693500157156 -23.313148448596593
rfingers 7.125019999999924
rthumb -0.8117193649823378 -53.45141578706772
lclavicle -4.899974413360442E-16 -6.926560044658892E-16
lhumerus -1.3149293770387658 -6.920421098532023 60.50231523635238
lradius 52.6222504171497
lwrist -11.12173219328961
lhand -37.26312318315141 -31.184264766305894
lfingers 7.12501999999992
lthumb -10.366045914058997 -1.6302267916893776
rfemur -21.406776438736507 -0.3552140001248074 19.525773508236853
rtibia 50.64404502688134
rfoot -22.81034035689858 -13.873477321374462
rtoes -12.27040070134359
lfemur -23.104220670974726 1.5416210324132054 -18.144700675220964
ltibia 50.09647506966537
lfoot -25.923547875160793 -3.652150911903229
ltoes -16.698449763879644
265
root 0 0 0 -0.5145804873980974 -3.0149095681678415 -0.20018112164034385
lowerback 11.214142486383611 0.6342833797573446 0.4004749495891471
upperback -1.933483957586195 0.9274538313083911 0.500611929979587
thorax -8.364561510438985 0.43188960932075315 0.11279419281648473
lowerneck -11.431603229480018 -0.6380759561243381 1.3381715276801973
upperneck 18.86089885591881 -0.2631358111549702 -3.886118383670742
head 7.826901472687787 -0.3200896820014347 -1.5650083938478037
rclavicle -5.493003273091991E-16 -6.188034773540288E-16
rhumerus -0.6006514001422225 0.8594224568529825 -60.2574945664345
rradius 53.26995352786018
rwrist 17.41834423322502
rhand -27.216639372031008 -23.312889797801546
rfingers 7.125019999999924
rthumb -0.8116687230081117 -53.451159840374494
lclavicle -4.899985623942974E-16 -6.926548477995207E-16
lhumerus -1.3150585228141622 -6.920390372851417 60.502406532737126
lradius 52.62215057830218
lwrist -11.121664577298446
lhand -37.2630798279905 -31.18403820027617
lfingers 7.12501999999992
lthumb -10.366004474868937 -1.6299982646867086
rfemur -21.406770433974728 -0.35520983303684206 19.525778813703113
rtibia 50.64403574817502
rfoot -22.810327923939642 -13.873471439102978
rtoes -12.270387692099217
lfemur -23.104203086091147 1.5416168246137067 -18.144702476750172
ltibia 50.09645441149869
lfoot -25.923523360862724 -3.6521502006264357
ltoes -16.698433915654007
266
root 0 0 0 -0.5145926641180005 -3.0149060678162174 -0.2001939871658419
lowerback 11.214137753181083 0.6342816403135201 0.40047785150308424
upperback -1.9334681477584121 0.9274525407076628 0.5006190636866359
thorax -8.364541457531837 0.43188909212505155 0.11280047551468025
lowerneck -11.431636908784185 -0.6380901650322491 1.338150871491944
upperneck 18.860901290420088 -0.2631572953903678 -3.8860908138619124
head 7.826908006144324 -0.32009903404251355 -1.5649981363215821
rclavicle -5.493021634197909E-16 -6.188014533352408E-16
rhumerus -0.6007987301312205 0.859325218123205 -60.257582653896186
rradius 53.269818240249606
rwrist 17.418276605472492
rhand -27.216590228528972 -23.312654978000978
rfingers 7.125019999999924
rthumb -0.811622739066101 -53.450927444862835
lclavicle -4.8999964400926E-16 -6.9265377490029E-16
lhumerus -1.3151799558099828 -6.920361458809696 60.50249233304811
lradius 52.62205669324323
lwrist -11.121601023664034
lhand -37.263039074752925 -31.183825207939805
lfingers 7.12501999999992
lthumb -10.365965519279076 -1.6297834455818538
rfemur -21.406764041531787 -0.3552055145230817 19.52578437126535
rtibia 50.64402619585513
rfoot -22.810315026049178 -13.873465307329448
rtoes -12.270374179529863
lfemur -23.104187131180737 1.541612997404431 -18.14470409513563
ltibia 50.096435574456734
lfoot -25.923501055191068 -3.6521495349083177
ltoes -16.69841946921832
267
root 0 0 0 -0.514603521038538 -3.014902967594151 -0.2002054774055464
lowerback 11.21413353354145 0.634280102442799 0.40048045474457955
upperback -1.9334540548533294 0.9274514043636695 0.5006254202185062
thorax -8.36452357568317 0.43188863407862554 0.11280606288763662
lowerneck -11.431666938730924 -0.63810284569263 1.3381324535484165
upperneck 18.860903463299035 -0.26317645734938244 -3.886066225786795
head 7.82691383311872 -0.3201073716735145 -1.5649889889058688
rclavicle -5.49303815237053E-16 -6.187996204570043E-16
rhumerus -0.6009320256954549 0.8592372501688406 -60.257662361256585
rradius 53.26969583512466
rwrist 17.418215402147617
rhand -27.216545761320685 -23.31244251078831
rfingers 7.125019999999924
rthumb -0.8115811266549997 -53.450717149162685
lclavicle -4.900006681671789E-16 -6.926527885883506E-16
lhumerus -1.3152928048361883 -6.920334572138093 60.502572037492236
lradius 52.621969437991
lwrist -11.121541979731038
lhand -37.263001211168145 -31.183627301291693
lfingers 7.12501999999992
lthumb -10.365929323506471 -1.6295838524855242
rfemur -21.406757809443434 -0.35520136260605994 19.52578974491386
rtibia 50.644017048229415
rfoot -22.810302612121507 -13.873459391092187
rtoes -12.270361166718164
lfemur -23.10417244741871 1.5416094669678093 -18.144705573924924
ltibia 50.096418158268456
lfoot -25.923480478442738 -3.652148904207076
ltoes -16.69840612169609
268
root 0 0 0 -0.514613174326992 -3.0149002231665163 -0.2002157036251626
lowerback 11.21412978196013 0.6342787428251457 0.400482777314786
upperback -1.933441526884953 0.9274504020028076 0.5006310691030913
thorax -8.364507674591442 0.43188822866616733 0.11281102252086939
lowerneck -11.431693639422138 -0.6381141270266675 1.3381160778937706
upperneck 18.860905395971866 -0.2631934981381572 -3.886044359531711
head 7.826919014717777 -0.3201147842841835 -1.5649808549511148
rclavicle -5.493052983535751E-16 -6.187979662707525E-16
rhumerus -0.6010522710060187 0.8591578999664282 -60.25773427180423
rradius 53.269585411956676
rwrist 17.418160179148334
rhand -27.216505644450265 -23.312250834490804
rfingers 7.125019999999924
rthumb -0.811543582490204 -53.45052741760574
lclavicle -4.900016213053119E-16 -6.926518895592543E-16
lhumerus -1.3153965117965516 -6.9203098527746345 60.50264526507648
lradius 52.62188924629514
lwrist -11.121487730270847
lhand -37.262966420622064 -31.183445445791428
lfingers 7.12501999999992
lthumb -10.365896063852299 -1.629400453550165
rfemur -21.406752132161447 -0.355197603370089 19.525794622952798
rtibia 50.644008785224614
rfoot -22.810291357949584 -13.873454022355894
rtoes -12.270349368362037
lfemur -23.10415877552073 1.5416061733436282 -18.14470694518381
ltibia 50.096401879586566
lfoot -25.92346128717438 -3.6521483022713683
ltoes -16.698393657750255
269
root 0 0 0 -0.51462174335253 -3.0148977918425865 -0.20022478340211514
lowerback 11.214126451780787 0.6342775392324558 0.4004848404799757
upperback -1.9334304078751439 0.9274495149450325 0.5006360815093567
thorax -8.364493558494349 0.4318878695981714 0.11281542184669108
lowerneck -11.431717340212423 -0.638124143317162 1.3381015427439344
upperneck 18.860907111029164 -0.26320862550617563 -3.8860249472606387
head 7.82692361411412 -0.3201213637250287 -1.5649736347698564
rclavicle -5.493066282657956E-16 -6.18796477604823E-16
rhumerus -0.6011604820883392 0.8590864941503433 -60.257798988963216
rradius 53.269486040099515
rwrist 17.418110476252124
rhand -27.21646954085053 -23.312078335303937
rfingers 7.125019999999924
rthumb -0.8115097925682262 -53.45035666091913
lclavicle -4.900024943928229E-16 -6.926510764998472E-16
lhumerus -1.3154908296771932 -6.9202873652284085 60.50271185198892
lradius 52.62181631110064
lwrist -11.121438398653687
lhand -37.26293478288414 -31.183280064037945
lfingers 7.12501999999992
lthumb -10.36586581737997 -1.629233670689402
rfemur -21.406747264930715 -0.3551943800263051 19.52579880602161
rtibia 50.6440017083694
rfoot -22.81028169284979 -13.873449412871805
rtoes -12.270339238861375
lfemur -23.104145938623486 1.54160307618213 -18.14470823124128
ltibia 50.09638655045531
lfoot -25.923443249831994 -3.652147726089824
ltoes -16.698381933533735
270
root 0 0 0 -0.5146293463496927 -3.014895633664816 -0.20023283579513929
lowerback 11.214123496872102 0.6342764710604794 0.4004866675177835
upperback -1.9334205435042593 0.9274487264254617 0.5006405276897412
thorax -8.36448103330813 0.43188755097539544 0.11281932602140726
lowerneck -11.431738367657582 -0.6381330290281688 1.3380886479065335
upperneck 18.860908631304508 -0.26322204610814626 -3.886007723059333
head 7.826927694180569 -0.3201272009647985 -1.5649672293271193
rclavicle -5.4930782005016785E-16 -6.187951408918172E-16
rhumerus -0.6012576849836897 0.8590223534215689 -60.25785712320191
rradius 53.26939677892964
rwrist 17.41806582714803
rhand -27.21643710964045 -23.31192338210643
rfingers 7.125019999999924
rthumb -0.8114794389919404 -53.45020327071734
lclavicle -4.900032826704473E-16 -6.926503463376519E-16
lhumerus -1.315575797360605 -6.920267104575743 60.50277183381907
lradius 52.6217506039705
lwrist -11.121393960031163
lhand -37.26290628254985 -31.18313107988206
lfingers 7.12501999999992
lthumb -10.365838569984529 -1.6290834239993686
rfemur -21.406743343320347 -0.3551917649337941 19.52580219104034
rtibia 50.64399596702877
rfoot -22.810273835167273 -13.873445671395881
rtoes -12.270331009787451
lfemur -23.104133825051743 1.5416001505161037 -18.144709446529372
ltibia 50.09637205710465
lfoot -25.923426222541917 -3.6521471749350445
ltoes -16.698370860873712
